<?xml version="1.0" encoding="UTF-8" standalone="no"?>
<!-- Created with Inkscape (http://www.inkscape.org/) -->
<svg
   xmlns:dc="http://purl.org/dc/elements/1.1/"
   xmlns:cc="http://creativecommons.org/ns#"
   xmlns:rdf="http://www.w3.org/1999/02/22-rdf-syntax-ns#"
   xmlns:svg="http://www.w3.org/2000/svg"
   xmlns="http://www.w3.org/2000/svg"
   xmlns:xlink="http://www.w3.org/1999/xlink"
   xmlns:sodipodi="http://sodipodi.sourceforge.net/DTD/sodipodi-0.dtd"
   xmlns:inkscape="http://www.inkscape.org/namespaces/inkscape"
   version="1.0"
   width="128pt"
   height="128pt"
   id="svg1061"
   sodipodi:version="0.32"
   inkscape:version="0.46"
   sodipodi:docname="folder.svg"
   inkscape:output_extension="org.inkscape.output.svg.inkscape">
  <metadata
     id="metadata38">
    <rdf:RDF>
      <cc:Work
         rdf:about="">
        <dc:format>image/svg+xml</dc:format>
        <dc:type
           rdf:resource="http://purl.org/dc/dcmitype/StillImage" />
      </cc:Work>
    </rdf:RDF>
  </metadata>
  <sodipodi:namedview
     inkscape:window-height="808"
     inkscape:window-width="645"
     inkscape:pageshadow="2"
     inkscape:pageopacity="0.0"
     guidetolerance="10.0"
     gridtolerance="10.0"
     objecttolerance="10.0"
     borderopacity="1.0"
     bordercolor="#666666"
     pagecolor="#ffffff"
     id="base"
     showgrid="false"
     inkscape:zoom="3.5911872"
     inkscape:cx="74.635166"
     inkscape:cy="79.811039"
     inkscape:window-x="50"
     inkscape:window-y="24"
     inkscape:current-layer="svg1061" />
  <defs
     id="defs3">
    <linearGradient
       id="linearGradient1757">
      <stop
         id="stop1758"
         style="stop-color:#4d90fa;stop-opacity:1"
         offset="0" />
      <stop
         id="stop1759"
         style="stop-color:#4d90fa;stop-opacity:0"
         offset="1" />
    </linearGradient>
    <linearGradient
       id="linearGradient1749">
      <stop
         id="stop1750"
         style="stop-color:#000000;stop-opacity:1"
         offset="0" />
      <stop
         id="stop1751"
         style="stop-color:#000000;stop-opacity:0"
         offset="1" />
    </linearGradient>
    <linearGradient
       id="linearGradient2354">
      <stop
         id="stop2355"
         style="stop-color:#ffffff;stop-opacity:1"
         offset="0" />
      <stop
         id="stop2356"
         style="stop-color:#ffffff;stop-opacity:0"
         offset="1" />
    </linearGradient>
    <linearGradient
       id="linearGradient1696">
      <stop
         id="stop1697"
         style="stop-color:#b18e4b;stop-opacity:1"
         offset="0" />
      <stop
         id="stop1698"
         style="stop-color:#f7dca0;stop-opacity:1"
         offset="1" />
    </linearGradient>
    <linearGradient
       x1="84.960785"
       y1="92.151367"
       x2="42.64373"
       y2="53.360722"
       id="linearGradient2450"
       xlink:href="#linearGradient1749"
       gradientUnits="userSpaceOnUse"
       gradientTransform="scale(1.321949,0.756459)" />
    <linearGradient
       x1="31.82851"
       y1="61.778381"
       x2="33.198818"
       y2="6.859036"
       id="linearGradient2451"
       xlink:href="#linearGradient1696"
       gradientUnits="userSpaceOnUse"
       gradientTransform="matrix(0.818391,0,0,1.170453,53.43468,-2.095615)" />
    <linearGradient
       x1="186.07457"
       y1="23.533224"
       x2="202.6377"
       y2="23.47304"
       id="linearGradient2452"
       xlink:href="#linearGradient2354"
       gradientUnits="userSpaceOnUse"
       gradientTransform="scale(0.388045,2.57702)" />
    <linearGradient
       x1="92.631454"
       y1="54.989693"
       x2="92.631454"
       y2="50.608093"
       id="linearGradient2453"
       xlink:href="#linearGradient1757"
       gradientUnits="userSpaceOnUse"
       gradientTransform="scale(0.787838,1.269296)" />
    <linearGradient
       x1="133.07144"
       y1="28.231943"
       x2="118.58411"
       y2="13.431207"
       id="linearGradient2454"
       xlink:href="#linearGradient1696"
       gradientUnits="userSpaceOnUse"
       gradientTransform="matrix(0.492395,0,0,1.945366,53.10969,-2.377145)" />
    <linearGradient
       x1="1270.3132"
       y1="4.8765283"
       x2="1247.6848"
       y2="0.72310239"
       id="linearGradient2455"
       xlink:href="#linearGradient1696"
       gradientUnits="userSpaceOnUse"
       gradientTransform="scale(9.440723e-2,10.59241)" />
    <linearGradient
       x1="1270.3132"
       y1="4.8765283"
       x2="1247.6848"
       y2="0.72310239"
       id="linearGradient2456"
       xlink:href="#linearGradient1696"
       gradientUnits="userSpaceOnUse"
       gradientTransform="matrix(9.440723e-2,0,0,10.59241,1.24477,0)" />
  </defs>
  <g
     id="layer1" />
  <path
     d="M 69.948825,73.22655 L 68.466825,71.091407 L 66.020035,71.091407 L 58.215158,61.5054 C 60.54837,59.768393 60.442557,59.711602 60.987151,58.625001 C 57.327816,51.672694 53.790969,49.51556 55.025091,49.534381 C 55.217529,48.018793 89.378257,39.602732 100.86378,39.298155 L 114.4449,62.74443 L 69.948825,73.22655 z"
     transform="matrix(2.086339,0,0,2.086339,-109.7868,0.386632)"
     id="path1744"
     style="fill:url(#linearGradient2450);fill-opacity:1;fill-rule:evenodd;stroke:none;stroke-width:0.79999995;stroke-linecap:butt;stroke-linejoin:miter;marker-mid:none;stroke-miterlimit:4;stroke-opacity:1" />
  <path
     d="M 74.515483,73.443352 L 72.995049,71.292107 L 70.484805,71.292107 L 70.484805,47.872262 C 72.878526,46.122155 72.769969,46.064935 73.328686,44.97014 C 73.80052,33.159783 71.728922,7.1767263 72.995049,7.195689 C 73.192478,5.6686707 108.90639,1.3394463 120.68977,1.0325715 L 121.9449,62.663743 L 74.515483,73.443352 z"
     transform="matrix(2.086339,0,0,2.086339,-109.7868,0.386632)"
     id="path2981"
     style="fill:#7c683a;fill-opacity:1;fill-rule:evenodd;stroke:none;stroke-width:0.79999995;stroke-linecap:butt;stroke-linejoin:miter;marker-mid:none;stroke-miterlimit:4;stroke-opacity:1" />
  <path
     d="M 75.714408,73.443352 L 74.232408,71.308209 L 71.785618,71.308209 L 71.785618,48.063665 C 74.11883,46.326658 74.013017,46.269867 74.557611,45.183266 C 75.017518,33.461311 72.998286,7.6727418 74.232408,7.6915626 C 74.424846,6.1759742 109.23598,1.8791547 120.7215,1.5745769 L 121.9449,62.74443 L 75.714408,73.443352 z"
     transform="matrix(2.086339,0,0,2.086339,-109.7868,0.386632)"
     id="path1093"
     style="fill:url(#linearGradient2451);fill-opacity:1;fill-rule:evenodd;stroke:none;stroke-width:0.79999995;stroke-linecap:butt;stroke-linejoin:miter;marker-mid:none;stroke-miterlimit:4;stroke-opacity:1" />
  <path
     d="M 75.46629,73.443352 L 73.98429,71.308209 L 71.5375,71.308209 L 71.5375,48.063665 C 73.870712,46.326658 73.764899,46.269867 74.309493,45.183266 C 74.7694,33.461311 72.750168,7.6727418 73.98429,7.6915626 C 74.176728,6.1759742 108.98786,1.8791547 120.47338,1.5745769 L 121.69678,62.74443 L 75.46629,73.443352 z"
     transform="matrix(2.086339,0,0,2.086339,-109.7868,0.386632)"
     id="path3604"
     style="fill:none;fill-opacity:1;fill-rule:evenodd;stroke:#f7edd4;stroke-width:0.5;stroke-linecap:butt;stroke-linejoin:miter;marker-mid:none;stroke-miterlimit:4;stroke-opacity:1" />
  <path
     d="M 72.205376,70.112002 L 72.205376,50.719264 L 75.19477,50.106055 L 75.118119,69.575445 L 72.205376,70.112002 z"
     transform="matrix(2.086339,0,0,2.086339,-109.7868,0.386632)"
     id="path2982"
     style="fill:url(#linearGradient2452);fill-opacity:1;fill-rule:evenodd;stroke:none;stroke-width:0.25pt;stroke-linecap:butt;stroke-linejoin:miter;stroke-opacity:1" />
  <path
     d="M 72.511981,69.288003 L 72.55915,66.394422 L 74.726019,66.394422 L 74.696538,68.790898 L 72.511981,69.288003 z"
     transform="matrix(2.086339,0,0,2.086339,-109.7868,0.386632)"
     id="path6103"
     style="fill:url(#linearGradient2453);fill-opacity:1;fill-rule:evenodd;stroke:none;stroke-width:0.25pt;stroke-linecap:butt;stroke-linejoin:miter;stroke-opacity:1" />
  <path
     d="M 97.745993,53.686599 L 94.953093,51.313753 L 95.169903,14.286639 L 112.73106,7.2714594 L 113.73765,68.441312 L 105.26674,74.713221 L 98.267095,67.667153 L 97.745993,53.686599 z"
     transform="matrix(2.086339,0,0,2.086339,-109.7868,0.386632)"
     id="path1110"
     style="fill:#000000;fill-opacity:0.39215686;fill-rule:evenodd;stroke:none;stroke-width:0.67286843;stroke-linecap:butt;stroke-linejoin:miter;stroke-miterlimit:4;stroke-opacity:1" />
  <path
     d="M 104.64157,47.973449 L 101.6875,45.572693 L 101.91682,8.1100611 L 120.49139,1.0123678 L 121.55607,62.901708 L 107.81748,75.388167 L 104.96343,74.98566 L 104.64157,47.973449 z"
     transform="matrix(2.086339,0,0,2.086339,-109.7868,0.386632)"
     id="path6105"
     style="fill:#7c683a;fill-opacity:1;fill-rule:evenodd;stroke:none;stroke-width:0.67286843;stroke-linecap:butt;stroke-linejoin:miter;stroke-miterlimit:4;stroke-opacity:1" />
  <path
     d="M 105.56441,47.861113 L 102.77151,45.488267 L 102.98832,8.4611522 L 120.54948,1.4459722 L 121.55607,62.615826 L 108.53231,75.175 L 105.86871,74.849797 L 105.56441,47.861113 z"
     transform="matrix(2.086339,0,0,2.086339,-109.7868,0.386632)"
     id="path1716"
     style="fill:url(#linearGradient2454);fill-opacity:1;fill-rule:evenodd;stroke:none;stroke-width:0.67286843;stroke-linecap:butt;stroke-linejoin:miter;stroke-miterlimit:4;stroke-opacity:1" />
  <path
     d="M 53.74824,50.620554 L 50.95534,48.247708 L 51.17215,11.220593 L 68.73331,4.2054132 L 69.886858,65.412007 L 56.71614,77.934441 L 54.05254,77.609238 L 53.74824,50.620554 z"
     transform="matrix(2.086339,0,0,2.086339,-1.680736,-5.370497)"
     id="path6106"
     style="fill:none;fill-opacity:1;fill-rule:evenodd;stroke:#f7edd4;stroke-width:0.625;stroke-linecap:butt;stroke-linejoin:miter;stroke-miterlimit:4;stroke-opacity:1" />
  <path
     d="M 73.072585,65.964863 L 73.072585,52.128478 L 73.622954,52.128478 L 73.622954,65.964864 L 73.072585,65.964863 z"
     transform="matrix(2.086339,0,0,2.086339,-109.7868,0.386632)"
     id="path1761"
     style="fill:#000000;fill-opacity:0.19607843;fill-rule:evenodd;stroke:none;stroke-width:0.25pt;stroke-linecap:butt;stroke-linejoin:miter;stroke-opacity:1" />
  <path
     d="M 119.3759,64.186592 L 118.45063,2.6837239 L 119.3759,64.186592 z"
     transform="matrix(2.086339,0,0,2.086339,-109.7868,0.386632)"
     id="path1767"
     style="fill:none;fill-opacity:1;fill-rule:evenodd;stroke:url(#linearGradient2455);stroke-width:0.25pt;stroke-linecap:butt;stroke-linejoin:miter;stroke-opacity:1" />
  <path
     d="M 120.85062,62.806872 L 119.88703,2.1471659 L 120.85062,62.806872 z"
     transform="matrix(2.086339,0,0,2.086339,-109.7868,0.386632)"
     id="path1776"
     style="fill:none;fill-opacity:1;fill-rule:evenodd;stroke:url(#linearGradient2456);stroke-width:0.25pt;stroke-linecap:butt;stroke-linejoin:miter;stroke-opacity:1" />
</svg>
